<svg width="16" height="16" viewBox="0 0 16 16" fill="none" xmlns="http://www.w3.org/2000/svg">
<path fill-rule="evenodd" clip-rule="evenodd" d="M8.50772 15.0374H1.38349C0.929935 15.0374 0.5625 14.6697 0.5625 14.2163V0.983333C0.5625 0.529843 0.929993 0.162354 1.38349 0.162354H14.6166C15.07 0.162354 15.4375 0.529843 15.4375 0.983333V14.2163C15.4375 14.6697 15.0699 15.0374 14.6166 15.0374H10.826V9.27693H12.7595L13.0491 7.032H10.826V5.59874C10.826 4.94878 11.0065 4.50586 11.9386 4.50586L13.1273 4.50534V2.49745C12.9217 2.47009 12.2161 2.40897 11.3951 2.40897C9.68113 2.40897 8.50772 3.45516 8.50772 5.37642V7.032H6.56925V9.27693H8.50772V15.0374Z" fill="#4C6AB2"/>
</svg>
