<svg width="18" height="18" viewBox="0 0 18 18" fill="none" xmlns="http://www.w3.org/2000/svg">
<path fill-rule="evenodd" clip-rule="evenodd" d="M13.0568 14.6202C12.9829 14.1824 12.596 12.0515 11.6434 9.43591C13.9874 9.06111 16.0176 9.70377 16.1675 9.75274C15.8447 11.7757 14.6862 13.5197 13.0568 14.6202ZM9.0005 15.8595C7.24322 15.8595 5.63189 15.2348 4.3754 14.1954C4.47136 14.2733 4.53834 14.3223 4.53834 14.3223C4.53834 14.3223 5.92976 11.2879 10.235 9.78772C10.251 9.78173 10.268 9.77773 10.284 9.77273C11.3056 12.4263 11.7264 14.6492 11.8343 15.2838C10.9637 15.6536 10.0051 15.8595 9.0005 15.8595ZM1.74049 8.59935C1.74049 8.5224 1.74449 8.44643 1.74649 8.37047C1.87543 8.37347 5.46196 8.45443 9.19942 7.33602C9.40733 7.74281 9.60625 8.15759 9.78817 8.57037C9.69221 8.59636 9.59725 8.62534 9.50229 8.65732C5.58491 9.92265 3.59772 13.4468 3.59772 13.4468C3.59772 13.4468 3.60072 13.4498 3.60072 13.4508C2.4442 12.1645 1.74049 10.4644 1.74049 8.59935ZM5.90278 2.03583C5.99974 2.16476 7.34218 3.9848 8.59867 6.21762C5.1131 7.14412 2.08735 7.10714 1.89642 7.10415C2.36723 4.85534 3.87761 2.99132 5.90278 2.03583ZM7.26122 1.55208C7.26122 1.55308 7.26022 1.55408 7.26022 1.55408C7.26022 1.55408 7.25122 1.55608 7.23823 1.55808C7.24622 1.55608 7.25322 1.55508 7.26122 1.55208ZM13.7945 3.15324C13.7765 3.18022 12.743 4.75439 10.0021 5.78085C8.7616 3.50105 7.39816 1.69001 7.2892 1.54609C7.83798 1.41316 8.41074 1.3412 9.0005 1.3412C10.8377 1.3412 12.5161 2.02683 13.7945 3.15324ZM16.2575 8.52739C16.1526 8.5044 13.6956 7.97568 11.2016 8.28952C11.1496 8.16558 11.0986 8.04065 11.0447 7.91572C10.8937 7.5599 10.7308 7.20809 10.5619 6.86227C13.4287 5.69189 14.5922 4.00978 14.6062 3.98979C15.6238 5.22614 16.2405 6.8053 16.2575 8.52739ZM17.3281 6.88926C17.2161 6.34355 17.0482 5.80483 16.8313 5.29111C16.6194 4.78737 16.3545 4.30163 16.0476 3.84787C15.7447 3.39811 15.3949 2.97433 15.011 2.59053C14.6262 2.20574 14.2034 1.85692 13.7525 1.55308C13.2987 1.24525 12.8129 0.982386 12.3091 0.768499C11.7953 0.552614 11.2576 0.384703 10.7118 0.273761C10.152 0.158822 9.57626 0.0998535 9.0005 0.0998535C8.42374 0.0998535 7.84797 0.158822 7.28821 0.273761C6.74243 0.384703 6.20465 0.552614 5.69086 0.768499C5.18707 0.982386 4.70127 1.24525 4.24646 1.55308C3.79664 1.85692 3.37382 2.20574 2.98898 2.59053C2.60513 2.97433 2.25628 3.39811 1.9524 3.84787C1.64553 4.30163 1.38064 4.78737 1.16872 5.29111C0.950814 5.80483 0.783883 6.34355 0.671929 6.88926C0.557976 7.44796 0.5 8.02366 0.5 8.59935C0.5 9.17705 0.557976 9.75274 0.671929 10.3124C0.783883 10.8582 0.950814 11.3959 1.16872 11.9086C1.38064 12.4123 1.64553 12.9001 1.9524 13.3538C2.25628 13.8036 2.60513 14.2254 2.98898 14.6112C3.37382 14.995 3.79664 15.3428 4.24646 15.6476C4.70127 15.9545 5.18707 16.2183 5.69086 16.4312C6.20465 16.6491 6.74243 16.815 7.28821 16.9259C7.84797 17.0419 8.42374 17.0999 9.0005 17.0999C9.57626 17.0999 10.152 17.0419 10.7118 16.9259C11.2576 16.815 11.7953 16.6491 12.3091 16.4312C12.8129 16.2183 13.2987 15.9545 13.7525 15.6476C14.2034 15.3428 14.6262 14.995 15.011 14.6112C15.3949 14.2254 15.7447 13.8036 16.0476 13.3538C16.3545 12.9001 16.6194 12.4123 16.8313 11.9086C17.0482 11.3959 17.2161 10.8582 17.3281 10.3124C17.442 9.75274 17.5 9.17705 17.5 8.59935C17.5 8.02366 17.442 7.44796 17.3281 6.88926Z" fill="#EE6099"/>
</svg>
