<svg width="18" height="18" viewBox="0 0 18 18" fill="none" xmlns="http://www.w3.org/2000/svg">
<path d="M13.854 0.211792H4.14607C2.20002 0.211792 0.611862 1.79995 0.611862 3.746V13.4539C0.611862 15.4 2.20002 16.9881 4.14607 16.9881H13.854C15.8 16.9881 17.3882 15.4 17.3882 13.4539V3.746C17.3882 1.79995 15.8 0.211792 13.854 0.211792Z" fill="#9797D4"/>
<path d="M0.611862 3.74593V13.4538C0.611862 15.3999 2.20002 16.988 4.14607 16.988H13.854C15.8 16.988 17.3882 15.3999 17.3882 13.4538V3.74593C17.3882 3.61171 17.3882 3.45514 17.3658 3.32093C14.5474 1.57619 11.2145 0.547241 7.65791 0.547241C5.42107 0.547241 3.2737 0.949873 1.28291 1.68803C0.857915 2.26961 0.611862 2.9854 0.611862 3.74593Z" fill="#8D8DD8"/>
<path d="M0.611862 13.4543C0.611862 15.4003 2.20002 16.9885 4.14607 16.9885H13.854C15.8 16.9885 17.3882 15.4003 17.3882 13.4543V5.49111C14.6592 3.52268 11.304 2.33716 7.65791 2.33716C5.13028 2.33716 2.75923 2.89637 0.611862 3.90295V13.4543Z" fill="#BD82F4"/>
<path d="M0.611862 13.4541C0.611862 15.4001 2.20002 16.9883 4.14607 16.9883H13.854C15.8 16.9883 17.3882 15.4001 17.3882 13.4541V7.79489C14.7934 5.51331 11.3934 4.12646 7.65791 4.12646C5.10791 4.12646 2.71449 4.77515 0.611862 5.91594V13.4541Z" fill="#EE73F4"/>
<path d="M0.611862 13.4539C0.611862 15.4 2.20002 16.9881 4.14607 16.9881H13.854C15.8 16.9881 17.3882 15.4 17.3882 13.4539V10.3224C15.0171 7.61577 11.5277 5.91577 7.65791 5.91577C5.06318 5.91577 2.64739 6.6763 0.611862 7.99603V13.4539Z" fill="#F97DCE"/>
<path d="M0.611862 13.4543C0.611862 15.4003 2.20002 16.9885 4.14607 16.9885H13.854C15.8 16.9885 17.3882 15.4003 17.3882 13.4543V13.3648C15.4645 9.98714 11.8408 7.70557 7.65791 7.70557C4.99607 7.70557 2.53555 8.64504 0.611862 10.2108V13.4543Z" fill="#FC9C95"/>
<path d="M0.611862 12.6712V13.4541C0.611862 15.4001 2.20002 16.9883 4.14607 16.9883H13.854C14.9277 16.9883 15.8671 16.5186 16.5158 15.7804C15.2408 12.112 11.7513 9.49487 7.65792 9.49487C4.86186 9.49487 2.33423 10.7251 0.611862 12.6712Z" fill="#7F1700"/>
<path d="M4.14605 16.9881H13.8539C14.2342 16.9881 14.6145 16.921 14.9724 16.8092C14.0553 13.6105 11.125 11.2842 7.65789 11.2842C4.8171 11.2842 2.35657 12.85 1.03683 15.1539C1.64078 16.25 2.80394 16.9881 4.14605 16.9881Z" fill="#7C3200"/>
<path d="M4.14607 16.9884H13.1605C12.3553 14.7069 10.2079 13.074 7.65791 13.074C5.30923 13.074 3.2737 14.4832 2.3566 16.4963C2.87107 16.8095 3.49739 16.9884 4.14607 16.9884Z" fill="#FFDF8D"/>
<path d="M4.14607 16.9883H11.2145C10.5434 15.7133 9.20133 14.8633 7.65791 14.8633C6.11449 14.8633 4.79475 15.7133 4.10133 16.9883C4.1237 16.9883 4.1237 16.9883 4.14607 16.9883Z" fill="#796D00"/>
<path d="M13.9211 0.323782C15.7776 0.323782 17.2763 1.82247 17.2763 3.67904V13.5211C17.2763 15.3777 15.7776 16.8764 13.9211 16.8764H4.07895C2.22237 16.8764 0.723684 15.3777 0.723684 13.5211V3.67904C0.723684 1.82247 2.22237 0.323782 4.07895 0.323782H13.9211ZM13.9211 0.100098H4.07895C2.11053 0.100098 0.5 1.71062 0.5 3.67904V13.5211C0.5 15.4896 2.11053 17.1001 4.07895 17.1001H13.9211C15.8895 17.1001 17.5 15.4896 17.5 13.5211V3.67904C17.5 1.71062 15.8895 0.100098 13.9211 0.100098Z" fill="#8B75A1"/>
<path d="M12.3553 4.57361C11.9847 4.57361 11.6842 4.87405 11.6842 5.24466C11.6842 5.61527 11.9847 5.91571 12.3553 5.91571C12.7259 5.91571 13.0263 5.61527 13.0263 5.24466C13.0263 4.87405 12.7259 4.57361 12.3553 4.57361ZM9 11.7315C7.27763 11.7315 5.86842 10.3223 5.86842 8.59992C5.86842 6.87756 7.27763 5.46835 9 5.46835C10.7224 5.46835 12.1316 6.87756 12.1316 8.59992C12.1316 10.3223 10.7224 11.7315 9 11.7315ZM9 6.36308C7.76974 6.36308 6.76316 7.36966 6.76316 8.59992C6.76316 9.83019 7.76974 10.8368 9 10.8368C10.2303 10.8368 11.2368 9.83019 11.2368 8.59992C11.2368 7.36966 10.2303 6.36308 9 6.36308Z" fill="black"/>
<path d="M11.4605 14.8635H6.53945C4.43682 14.8635 2.73682 13.1635 2.73682 11.0608V6.13979C2.73682 4.03716 4.43682 2.33716 6.53945 2.33716H11.4605C13.5631 2.33716 15.2631 4.03716 15.2631 6.13979V11.0608C15.2631 13.1635 13.5631 14.8635 11.4605 14.8635ZM6.53945 3.2319C4.92892 3.2319 3.63155 4.52926 3.63155 6.13979V11.0608C3.63155 12.6714 4.92892 13.9687 6.53945 13.9687H11.4605C13.071 13.9687 14.3684 12.6714 14.3684 11.0608V6.13979C14.3684 4.52926 13.071 3.2319 11.4605 3.2319H6.53945Z" fill="black"/>
</svg>
