<svg width="21" height="21" viewBox="0 0 21 21" fill="none" xmlns="http://www.w3.org/2000/svg">
<path fill-rule="evenodd" clip-rule="evenodd" d="M0.821428 3.43072L1.52594 2.72621L6.7106 7.91086C6.01931 8.60214 6.71059 9.98472 8.78446 12.0586C10.8583 14.1324 12.2409 14.8237 12.9322 14.1324L18.1168 19.3171L17.4124 20.0215C17.1833 20.2506 16.8848 20.3974 16.5636 20.439C13.2458 20.8681 9.61587 19.1116 5.67367 15.1694C1.73151 11.2272 -0.0250268 7.59729 0.404061 4.27959C0.445615 3.9583 0.592347 3.6598 0.821428 3.43072ZM1.52594 2.72621L2.56287 1.68928C3.13556 1.1166 4.06405 1.1166 4.63673 1.68928L7.74753 4.80007C8.32021 5.37275 8.32021 6.30125 7.74753 6.87393L6.7106 7.91086L1.52594 2.72621ZM12.9322 14.1324L13.9691 13.0955C14.5418 12.5228 15.4703 12.5228 16.043 13.0955L19.1538 16.2063C19.7264 16.779 19.7264 17.7075 19.1538 18.2802L18.1168 19.3171L12.9322 14.1324Z" fill="#DFC389"/>
</svg>
