<svg width="20" height="17" viewBox="0 0 20 17" fill="none" xmlns="http://www.w3.org/2000/svg">
<path d="M20 2.45001C19.2651 2.77554 18.4746 2.99274 17.6408 3.09551C18.4885 2.59222 19.1406 1.78951 19.4467 0.841252C18.6534 1.30621 17.7746 1.64785 16.8397 1.82784C16.0931 1.03624 15.0282 0.545166 13.8483 0.545166C11.5818 0.545166 9.74474 2.36613 9.74474 4.61149C9.74474 4.92924 9.78196 5.23866 9.85196 5.53919C6.44224 5.3681 3.41805 3.74712 1.39488 1.28733C1.03936 1.88839 0.839374 2.59222 0.839374 3.33493C0.839374 4.74648 1.56209 5.98916 2.66422 6.72132C1.9915 6.70076 1.35822 6.51356 0.803822 6.21358C0.803822 6.2258 0.803822 6.24414 0.803822 6.26136C0.803822 8.23397 2.2187 9.87661 4.0941 10.2505C3.75135 10.3443 3.38916 10.3966 3.01586 10.3966C2.75088 10.3966 2.49257 10.3666 2.24259 10.3216C2.76477 11.9337 4.27964 13.1119 6.07449 13.1469C4.67017 14.2357 2.90142 14.8879 0.978252 14.8879C0.646057 14.8879 0.321084 14.869 0 14.8301C1.81707 15.9805 3.97467 16.6549 6.29059 16.6549C13.8372 16.6549 17.9657 10.4577 17.9657 5.08145C17.9657 4.90536 17.9602 4.72982 17.9518 4.5565C18.7573 3.98766 19.4517 3.26994 20 2.45001Z" fill="#14B3FC"/>
</svg>
